<svg width="438" height="180" viewBox="0 0 438 180" fill="none" xmlns="http://www.w3.org/2000/svg">
<g clip-path="url(#clip0_2755_29340)">
<path d="M22.2378 112.897C3.46718 112.897 0 107.27 0 89.1919V65.7865C0 47.7087 3.46718 42.0818 22.2378 42.0818H55.8335C74.6041 42.0818 78.0713 47.7087 78.0713 65.7865V112.897H22.2378ZM27.857 85.1812C27.857 88.3538 28.8732 90.0898 32.5795 90.0898H50.2143V69.6774C50.2143 66.8041 49.4969 64.9484 46.3287 64.9484H31.5633C28.395 64.9484 27.857 66.8041 27.857 69.6774V85.1812ZM93.7333 51.2404C93.7333 42.0219 100.488 37.293 107.961 37.293C115.433 37.293 122.188 42.2015 122.188 51.2404V87.5756H126.911C135.638 87.5756 138.269 94.3399 138.269 100.086C138.269 105.833 135.519 112.597 126.911 112.597H122.188V172.218H93.7931V51.2404H93.7333Z" fill="#F25C5C"/>
<path d="M168.995 51.5397V50.9411C168.995 42.0219 176.288 38.131 183.94 38.3106C191.412 38.4303 197.988 42.6205 197.988 50.9411V51.5397C197.988 55.1313 197.689 58.6032 197.27 61.8956C217.655 63.6315 231.822 77.2797 230.268 105.294H202.292C203.607 92.6638 199.123 84.7622 189.977 83.3256C181.489 97.692 167.739 106.013 153.512 106.731C146.04 107.15 140.899 103.139 139.584 97.692C138.029 91.1074 141.138 85.0615 147.355 83.6249C161.821 80.3326 168.995 69.1387 168.995 51.5996V51.5397ZM209.465 172.218C201.515 172.218 197.031 163 197.031 152.704V150.968C197.031 140.612 201.515 134.027 209.465 134.027H253.403V130.316C253.403 128.58 253.163 128.041 252.028 128.041H202.83C199.422 128.041 198.047 123.851 198.047 119.541C198.047 115.53 199.542 111.22 202.83 111.22H260.516C268.288 111.22 271.157 114.932 271.157 126.305V149.292H217.416C216.101 149.292 215.503 150.609 215.503 152.045V152.464C215.503 153.901 216.101 155.218 217.416 155.218H268.467C271.934 155.218 273.429 159.647 273.429 163.957C273.429 167.968 272.054 172.278 268.467 172.278H209.465V172.218ZM240.729 51.5397C240.729 42.2015 247.604 37.293 255.196 37.293C262.788 37.293 269.662 42.3212 269.662 51.5397V106.551H240.67V51.5397H240.729Z" fill="#F25C5C"/>
<path d="M307.742 114.333C293.275 114.333 285.205 103.558 285.205 91.4663V89.3113C285.205 76.9801 293.096 68.7792 307.742 68.7792H324.241V64.17C324.241 62.3143 323.822 61.4164 321.252 61.4164H295.547C288.792 61.4164 285.922 55.7895 285.922 51.3598C285.922 46.6309 288.911 41.1836 295.547 41.1836H329.979C344.625 41.1836 350.364 47.7682 350.364 59.441V86.857H316.768C314.198 86.857 313.062 88.174 313.062 90.0296V90.8677C313.062 92.7233 314.198 94.0403 316.768 94.0403H346.06C352.636 94.0403 355.266 99.6671 355.266 104.217C355.266 108.766 352.994 114.273 346.06 114.273H307.742V114.333ZM390.416 99.4277H383.661V115.59H358.673V61.5361C358.673 53.5148 364.532 49.3246 371.167 49.3246C377.803 49.3246 383.661 53.6345 383.661 61.5361V77.3392H390.416" fill="#F25C5C"/>
<path d="M388.503 116.37V80.4537C388.503 69.3795 389.938 62.6153 396.633 57.8863C401.894 54.175 406.198 51.1221 408.709 48.4284C412.535 44.2382 413.491 41.1254 413.491 36.2169C413.491 29.6322 409.067 25.442 403.687 25.442C398.307 25.442 393.286 28.7343 391.851 34.6605C390.177 41.5444 385.156 45.4354 378.52 44.8966C373.021 44.4776 368.119 39.9881 368.358 31.1287C368.836 13.5897 384.558 0.121094 403.747 0.121094C422.936 0.121094 438 11.734 438 36.3366C438 45.9741 436.207 52.858 431.903 58.9039C428.316 63.9322 422.577 68.9605 416.659 73.5697C413.312 76.3233 412.714 79.1966 412.714 82.9079V116.49H388.503V116.37Z" fill="#FFC355"/>
<path fill-rule="evenodd" clip-rule="evenodd" d="M417.855 149.531C417.855 166.359 404.232 180 387.427 180C370.623 180 357 166.359 357 149.531C357 132.704 370.623 119.062 387.427 119.062C404.232 119.062 417.855 132.704 417.855 149.531ZM397.649 149.531C397.649 155.185 393.073 159.767 387.427 159.767C381.782 159.767 377.205 155.185 377.205 149.531C377.205 143.878 381.782 139.295 387.427 139.295C393.073 139.295 397.649 143.878 397.649 149.531Z" fill="#FFC355"/>
</g>
<defs>
<clipPath id="clip0_2755_29340">
<rect width="438" height="180" fill="white"/>
</clipPath>
</defs>
</svg>
